HIERARCHY
ROOT Hips
{
 OFFSET 0.000000 0.000000 0.000000
 CHANNELS 6 Xposition Yposition Zposition Yrotation Xrotation Zrotation
 JOINT Chest
 {
  OFFSET 0.000000 9.910571 -0.011835
  CHANNELS 3 Yrotation Xrotation Zrotation
  JOINT Chest2
  {
   OFFSET 0.000000 10.789473 0.021497
   CHANNELS 3 Yrotation Xrotation Zrotation
   JOINT Chest3
   {
    OFFSET 0.000000 9.748205 0.000000
    CHANNELS 3 Yrotation Xrotation Zrotation
    JOINT Chest4
    {
     OFFSET 0.000000 9.748205 0.000000
     CHANNELS 3 Yrotation Xrotation Zrotation
     JOINT Neck
     {
      OFFSET 0.000000 13.998479 0.000000
      CHANNELS 3 Yrotation Xrotation Zrotation
      JOINT Head
      {
       OFFSET 0.000000 9.082285 0.051121
       CHANNELS 3 Yrotation Xrotation Zrotation
       End Site
       {
        OFFSET 0.000000 17.246134 0.026702
       }
      }
     }
     JOINT RightCollar
     {
      OFFSET -3.284495 7.824262 0.000000
      CHANNELS 3 Yrotation Xrotation Zrotation
      JOINT RightShoulder
      {
       OFFSET -15.534540 0.000000 0.000000
       CHANNELS 3 Yrotation Xrotation Zrotation
       JOINT RightElbow
       {
        OFFSET 0.000000 -28.251216 0.000000
        CHANNELS 3 Yrotation Xrotation Zrotation
        JOINT RightWrist
        {
         OFFSET 0.000000 -23.418114 0.012537
         CHANNELS 3 Yrotation Xrotation Zrotation
         End Site
         {
          OFFSET 0.000000 -17.723959 0.000000
         }
        }
       }
      }
     }
     JOINT LeftCollar
     {
      OFFSET 3.284495 7.824262 0.000000
      CHANNELS 3 Yrotation Xrotation Zrotation
      JOINT LeftShoulder
      {
       OFFSET 15.534540 0.000000 0.000000
       CHANNELS 3 Yrotation Xrotation Zrotation
       JOINT LeftElbow
       {
        OFFSET 0.000000 -28.251216 0.000000
        CHANNELS 3 Yrotation Xrotation Zrotation
        JOINT LeftWrist
        {
         OFFSET 0.000000 -23.418114 0.012537
         CHANNELS 3 Yrotation Xrotation Zrotation
         End Site
         {
          OFFSET 0.000000 -17.723959 0.000000
         }
        }
       }
      }
     }
    }
   }
  }
 }
 JOINT RightHip
 {
  OFFSET -8.142657 0.057990 0.005917
  CHANNELS 3 Yrotation Xrotation Zrotation
  JOINT RightKnee
  {
   OFFSET 0.000000 -49.716894 0.008478
   CHANNELS 3 Yrotation Xrotation Zrotation
   JOINT RightAnkle
   {
    OFFSET 0.000000 -43.994153 0.004166
    CHANNELS 3 Yrotation Xrotation Zrotation
    JOINT RightToe
    {
     OFFSET 0.000000 -7.619154 17.822051
     CHANNELS 3 Yrotation Xrotation Zrotation
     End Site
     {
      OFFSET 0.000000 -1.595627 7.159905
     }
    }
   }
  }
 }
 JOINT LeftHip
 {
  OFFSET 8.142657 0.057990 0.005917
  CHANNELS 3 Yrotation Xrotation Zrotation
  JOINT LeftKnee
  {
   OFFSET 0.000000 -49.716894 0.008478
   CHANNELS 3 Yrotation Xrotation Zrotation
   JOINT LeftAnkle
   {
    OFFSET 0.000000 -43.994153 0.004166
    CHANNELS 3 Yrotation Xrotation Zrotation
    JOINT LeftToe
    {
     OFFSET 0.000000 -7.619154 17.822051
     CHANNELS 3 Yrotation Xrotation Zrotation
     End Site
     {
      OFFSET 0.000000 -1.595627 7.159905
     }
    }
   }
  }
 }
}
MOTION
Frames: 16
Frame Time: 0.008333
476.621274 99.146520 391.068278 -34.742404 -0.027157 -1.111597 1.711151 21.719656 -0.769393 0.776336 9.652585 -0.449906 0.776336 9.652585 -0.449906 0.588033 7.238887 -0.348992 -1.190523 24.743352 -1.652787 -1.728685 9.758761 -2.669818 0.109645 6.839581 3.941693 27.718000 -17.364838 -27.744075 24.758973 -25.768339 -4.823028 12.083012 -23.724954 -27.615405 -4.187430 2.827328 -8.348862 -24.997163 -19.537265 32.224901 -49.141808 -36.397620 41.047513 -6.549574 -10.828950 -10.626873 -18.181646 -23.743110 2.247278 -12.108274 42.806204 -15.990095 -6.918644 -16.535534 6.275641 0.125849 2.262196 -0.187140 11.099592 -21.736388 -0.273341 -7.291768 31.036776 2.321157 3.086444 -9.256526 -3.256034 0.027251 -0.118834 0.178242
476.788961 98.930785 390.743680 -34.573831 0.266071 -0.969997 1.643923 21.878908 -0.705350 0.749419 9.715766 -0.418041 0.749419 9.715766 -0.418041 0.567412 7.286331 -0.324792 -1.191292 24.679601 -1.667797 -1.725439 9.640371 -2.696111 0.114224 6.956768 3.795090 27.989291 -17.620588 -28.190787 24.784460 -26.014201 -5.033065 12.215939 -24.118522 -28.146288 -3.964214 2.695832 -8.392172 -25.221987 -19.350783 32.273515 -48.934475 -37.239722 41.103110 -6.214938 -10.721147 -9.259729 -18.166258 -24.426046 2.468054 -11.919097 43.304215 -16.192083 -7.470752 -16.999643 6.461494 0.063781 2.148126 -0.182448 11.143185 -22.584610 -0.544997 -7.194978 31.723995 2.333283 2.912388 -9.345850 -3.228324 0.035650 -0.123449 0.150283
476.942174 98.709070 390.417062 -34.408943 0.571191 -0.856579 1.564464 22.050116 -0.626474 0.717687 9.782865 -0.380833 0.717687 9.782865 -0.380833 0.543099 7.336718 -0.296515 -1.187383 24.591279 -1.695561 -1.710275 9.476416 -2.746273 0.114197 7.053532 3.653467 28.198510 -17.902438 -28.613225 24.793855 -26.238375 -5.276942 12.261781 -24.660580 -28.734186 -3.727190 2.534429 -8.452649 -25.337777 -19.159468 32.281261 -48.820592 -38.212749 41.231438 -5.975336 -10.543685 -8.012362 -18.295535 -25.176483 2.739144 -11.713218 43.910725 -16.388516 -7.907266 -17.388874 6.530886 0.021742 1.957625 -0.132584 11.265518 -23.440459 -0.821069 -7.175368 32.401916 2.360219 2.731686 -9.449993 -3.210648 0.039355 -0.111146 0.125372
477.073926 98.482214 390.095220 -34.223964 0.879559 -0.766289 1.462292 22.228286 -0.524063 0.674797 9.848976 -0.336956 0.674797 9.848976 -0.336956 0.510321 7.386374 -0.263062 -1.176117 24.494690 -1.735481 -1.678723 9.297227 -2.820048 0.132195 7.114795 3.503883 28.293266 -18.202643 -28.998114 24.737767 -26.524360 -5.478943 12.090550 -25.344822 -29.320047 -3.463925 2.371969 -8.546788 -25.350888 -18.971804 32.250415 -48.805246 -39.228008 41.519554 -5.849742 -10.387111 -7.052423 -18.478404 -25.988707 2.990822 -11.693882 44.621830 -16.624930 -8.248335 -17.727384 6.532957 -0.019074 1.721665 -0.069370 11.419193 -24.291602 -1.090562 -7.219589 33.072004 2.380027 2.580689 -9.559261 -3.199599 0.046516 -0.096082 0.104443
477.189949 97.943920 389.823461 -33.776503 0.990199 -0.439500 0.981369 22.604334 -0.673045 0.619337 9.910286 -0.291581 0.619337 9.910286 -0.291581 0.468108 7.432431 -0.228270 -1.150717 24.396655 -1.786444 -1.618951 9.115602 -2.917216 0.150618 7.165813 3.381389 28.262802 -18.528555 -29.329984 24.575063 -26.902799 -5.603496 11.745569 -26.101955 -29.867110 -3.170185 2.250601 -8.655056 -25.244663 -18.805299 32.178914 -48.984624 -40.309913 41.949625 -5.794003 -10.166830 -6.327132 -18.789099 -26.716327 2.810416 -11.953636 45.343582 -16.950793 -8.324976 -17.358746 6.421670 0.135880 0.812145 0.070314 11.428663 -25.004750 -1.621617 -7.238759 34.020135 2.474701 2.395503 -10.099421 -3.228405 0.071874 0.179516 0.097303
477.306391 97.424961 389.596567 -33.189034 1.115243 -0.152837 0.362584 22.939952 -0.769732 0.546928 9.963719 -0.245706 0.546928 9.963719 -0.245706 0.413197 7.472578 -0.192809 -1.110918 24.299573 -1.859502 -1.527698 8.936103 -3.057757 0.193632 7.221312 3.268121 28.078325 -18.879948 -29.602325 24.251990 -27.444562 -5.589486 11.295341 -26.787807 -30.303698 -2.834595 2.193711 -8.759545 -25.031048 -18.661782 32.058084 -49.263523 -41.419477 42.519311 -5.754344 -9.972627 -5.828721 -19.256606 -27.430029 2.685308 -12.570764 46.025050 -17.531114 -8.237938 -17.218711 6.382193 0.204314 0.158545 0.150138 11.267936 -25.608506 -2.084415 -7.232726 34.730498 2.589269 2.153405 -10.649413 -3.300181 0.182314 0.563329 0.133127
477.388872 96.983370 389.372869 -32.656112 1.269535 0.020431 -0.186945 23.233850 -0.751639 0.466428 10.013811 -0.202682 0.466428 10.013811 -0.202682 0.352276 7.510211 -0.159335 -1.051198 24.194503 -1.940299 -1.398394 8.742314 -3.217362 0.248941 7.266165 3.178845 27.727419 -19.269972 -29.796849 23.832789 -28.155964 -5.492209 10.882506 -27.408449 -30.667113 -2.454048 2.182059 -8.850170 -24.710481 -18.550146 31.880698 -49.706379 -42.655602 43.160288 -5.740634 -9.644231 -5.402667 -19.824963 -28.082055 2.759789 -13.312273 46.623279 -18.297436 -8.052974 -17.342695 6.394184 0.257481 -0.188946 0.202120 11.095751 -26.286737 -2.445499 -7.157732 35.503667 2.764913 1.974034 -11.100751 -3.374111 0.201298 0.809217 0.137831
477.451873 96.584005 389.137869 -32.230326 1.524926 0.172079 -0.613116 23.419340 -0.701043 0.380280 10.062107 -0.160257 0.380280 10.062107 -0.160257 0.287135 7.546485 -0.126201 -0.978570 24.079080 -2.021435 -1.245354 8.529805 -3.381097 0.291267 7.283510 3.088983 27.223777 -19.678589 -29.923193 23.379803 -29.006492 -5.349534 10.785060 -27.898542 -31.021179 -2.060336 2.211609 -8.895717 -24.309955 -18.477941 31.656485 -50.149409 -43.987218 43.825775 -5.717958 -9.273733 -5.048370 -20.337563 -28.791687 2.924935 -14.064976 47.179507 -19.122784 -7.799867 -17.616148 6.465035 0.259121 -0.356407 0.198962 11.003201 -27.067170 -2.807733 -7.011864 36.279616 2.998205 1.766348 -11.500911 -3.487938 0.230126 0.992177 0.161100
477.529223 96.201661 388.893419 -31.895525 1.878297 0.364700 -0.986656 23.493897 -0.694906 0.293298 10.111130 -0.124551 0.293298 10.111130 -0.124551 0.221478 7.583291 -0.098066 -0.885437 23.960021 -2.104736 -1.054548 8.311304 -3.554278 0.320329 7.307688 3.022580 26.546601 -20.158746 -29.951106 23.130800 -29.947314 -5.267821 11.072852 -28.173952 -31.403877 -1.647318 2.274404 -8.900400 -23.831359 -18.431706 31.383309 -50.649318 -45.477709 44.451645 -5.784299 -8.785683 -4.611718 -20.703369 -29.642642 3.054870 -14.717326 47.796830 -19.852509 -7.662732 -17.929121 6.589226 0.227446 -0.458221 0.155973 10.945160 -27.934331 -3.232830 -6.764385 37.038859 3.294990 1.586739 -11.845190 -3.624892 0.246390 1.126737 0.180920
477.605026 95.790732 388.627837 -31.612971 2.277026 0.526261 -1.278951 23.508028 -0.644553 0.210728 10.158502 -0.088077 0.210728 10.158502 -0.088077 0.159107 7.618847 -0.069419 -0.784075 23.849556 -2.185938 -0.849337 8.109333 -3.726187 0.323402 7.332976 2.946404 25.761505 -20.674209 -29.912572 23.128671 -30.909457 -5.280031 11.463903 -28.341921 -31.720524 -1.282248 2.378809 -8.845269 -23.275781 -18.422420 31.062325 -51.144249 -46.989296 45.096264 -5.908209 -8.367529 -4.147086 -21.210276 -30.530662 3.327161 -15.002203 48.480465 -20.423073 -7.648498 -18.340817 6.700421 0.166357 -0.457626 0.112914 10.819313 -28.861445 -3.606478 -6.501190 37.773738 3.591479 1.505807 -12.088745 -3.777205 0.272953 1.185022 0.187384
477.680647 95.373298 388.337135 -31.414684 2.706322 0.659216 -1.507227 23.471286 -0.579612 0.138870 10.202695 -0.055026 0.138870 10.202695 -0.055026 0.104803 7.652009 -0.043500 -0.669186 23.758913 -2.254054 -0.623336 7.944762 -3.878376 0.291821 7.365392 2.862933 24.953515 -21.189634 -29.828990 23.361344 -31.863802 -5.370881 11.745218 -28.496562 -31.982868 -0.955410 2.518407 -8.754877 -22.638588 -18.415545 30.665668 -51.839723 -48.521200 45.830483 -6.153294 -7.991799 -3.533888 -21.859725 -31.420385 3.800718 -14.934111 49.166535 -20.889303 -7.835885 -18.792506 6.800349 0.099584 -0.369386 0.091706 10.713984 -29.840963 -3.956199 -6.352002 38.498638 3.835275 1.537094 -12.276846 -3.895879 0.296965 1.213725 0.151812
477.747895 94.946038 388.042555 -31.330231 3.080092 0.750761 -1.630010 23.446758 -0.495458 0.077871 10.239014 -0.025564 0.077871 10.239014 -0.025564 0.058679 7.679257 -0.020439 -0.542814 23.716449 -2.317061 -0.379033 7.870309 -4.024374 0.275682 7.409252 2.787262 24.095330 -21.660600 -29.733288 23.738238 -32.817023 -5.426465 11.906304 -28.682198 -32.245489 -0.670772 2.720199 -8.628362 -21.945079 -18.437673 30.250925 -52.671396 -49.900604 46.713821 -6.403410 -7.804118 -2.881501 -22.537980 -32.231716 4.410081 -14.682303 49.854337 -21.328820 -8.051040 -19.283403 6.837977 0.058768 -0.232013 0.110946 10.754275 -30.780220 -4.304572 -6.464497 39.210567 4.007039 1.739030 -12.380312 -3.952088 0.283905 1.194682 0.037202
477.831034 94.579617 387.741201 -31.163072 3.443189 0.891746 -1.877223 23.399712 -0.488373 0.029915 10.271311 0.001005 0.029915 10.271311 0.001005 0.022359 7.703483 0.000244 -0.415991 23.727378 -2.352134 -0.142476 7.894918 -4.119989 0.250852 7.443643 2.710154 23.261526 -22.027760 -29.667847 24.092759 -33.830928 -5.340490 11.896689 -28.913209 -32.557942 -0.443049 2.951607 -8.478556 -21.200263 -18.470106 29.787309 -53.806345 -51.204016 47.733637 -6.680659 -7.614917 -2.043392 -23.291448 -33.044827 5.034185 -14.444670 50.524114 -21.812364 -8.361092 -19.717934 6.829529 0.098691 -0.124774 0.187148 10.760898 -31.710874 -4.754469 -6.741921 39.997396 4.117897 2.088691 -12.763329 -3.949395 0.243885 1.402010 -0.115215
477.902603 94.155048 387.448692 -31.182041 3.746865 0.934499 -1.918939 23.390134 -0.412392 -0.000341 10.300132 0.023658 -0.000341 10.300132 0.023658 -0.000658 7.725099 0.017701 -0.291485 23.795657 -2.358129 0.080785 8.025639 -4.162135 0.222190 7.462094 2.624399 22.475399 -22.263202 -29.639929 24.281366 -34.935059 -5.056467 11.771780 -29.207803 -32.968361 -0.272240 3.198723 -8.327352 -20.449703 -18.485288 29.296153 -55.124194 -52.205864 49.002331 -6.832272 -7.617820 -1.170998 -23.825896 -33.794774 5.695210 -14.386974 51.212339 -22.378727 -8.627299 -20.169189 6.833325 0.089601 -0.002112 0.242545 10.862276 -32.595540 -5.085601 -7.027466 40.772399 4.199433 2.449085 -12.939958 -3.920270 0.188883 1.409998 -0.256289
477.986616 93.720759 387.165240 -31.371025 4.040983 0.965032 -1.820632 23.384381 -0.363205 -0.025475 10.329547 0.040057 -0.025475 10.329547 0.040057 -0.019738 7.747158 0.030396 -0.172397 23.906533 -2.341922 0.287309 8.234952 -4.162308 0.206690 7.436697 2.506792 21.749545 -22.365264 -29.614285 24.301833 -36.145270 -4.621325 11.694596 -29.524677 -33.509232 -0.115802 3.422227 -8.186183 -19.723814 -18.454659 28.793499 -56.729380 -53.401916 50.207673 -7.185857 -7.381645 0.069495 -24.068121 -34.576202 6.283632 -14.590859 51.916513 -23.076991 -8.758310 -20.606371 6.848447 0.035969 0.099508 0.272265 11.122806 -33.499217 -5.402239 -7.233577 41.584575 4.274922 2.728113 -13.056936 -3.851446 0.132434 1.340541 -0.377120
478.072833 93.273701 386.912361 -31.561174 4.257460 0.980929 -1.739208 23.434094 -0.314118 -0.043052 10.358524 0.052496 -0.043052 10.358524 0.052496 -0.033099 7.768890 0.040001 -0.059328 24.051650 -2.303217 0.476241 8.507202 -4.119835 0.194152 7.394569 2.350168 21.093493 -22.351454 -29.592543 24.220732 -37.444629 -4.123653 11.754740 -29.782317 -34.160574 0.033733 3.636407 -8.046231 -19.064804 -18.371203 28.270705 -58.217572 -54.062231 51.680105 -7.232151 -7.610261 1.126857 -24.211341 -35.315038 6.786710 -15.049462 52.624892 -23.932596 -8.805521 -20.974176 6.913959 -0.045241 0.133063 0.275481 11.328861 -34.363103 -5.647162 -7.240299 42.412832 4.416627 2.819756 -13.136510 -3.752059 0.112956 1.229180 -0.475150
